<?xml version="1.0" standalone="no"?>
<!DOCTYPE svg PUBLIC "-//W3C//DTD SVG 1.1//EN" "http://www.w3.org/Graphics/SVG/1.1/DTD/svg11.dtd" >
<svg xmlns="http://www.w3.org/2000/svg">
<metadata>Generated by IcoMoon</metadata>
<defs>
<font id="iconfont" horiz-adv-x="1024">
<font-face units-per-em="1024" ascent="896" descent="-128" />
<missing-glyph horiz-adv-x="1024" />
<glyph unicode="&#x20;" horiz-adv-x="0" d="" />
<glyph unicode="&#xe604;" glyph-name="chahao" d="M511.999-65.61c-248.306 0-449.608 201.308-449.608 449.614s201.302 449.606 449.608 449.606c248.365 0 449.61-201.3 449.61-449.607s-201.245-449.613-449.61-449.613v0zM718.187 515.078c8.458 8.463 8.458 22.203 0 30.658l-45.927 45.872c-8.46 8.46-22.138 8.46-30.6 0l-130.056-130.057-130.057 130.057c-8.46 8.46-22.142 8.46-30.6 0l-45.927-45.872c-8.458-8.456-8.458-22.196 0-30.658l130.057-130.053-130.057-130.057c-8.458-8.456-8.458-22.14 0-30.6l45.927-45.924c8.458-8.404 22.14-8.404 30.6 0l130.057 130.057 130.057-130.057c8.462-8.404 22.14-8.404 30.6 0l45.927 45.923c8.458 8.46 8.458 22.144 0 30.6l-130.058 130.057 130.057 130.054z" />
<glyph unicode="&#xe60a;" glyph-name="shanchu1" d="M773.461 11.264h-522.923c-32.768 0-59.392 26.624-59.392 59.392v481.963c0 11.605 8.875 20.48 20.48 20.48s20.48-8.875 20.48-20.48v-482.645c0-10.24 8.192-18.432 18.432-18.432h523.605c10.24 0 18.432 8.192 18.432 18.432v482.645c0 11.605 8.875 20.48 20.48 20.48s20.48-8.875 20.48-20.48v-482.645c-0.683-32.085-27.307-58.709-60.075-58.709zM368.64 110.933c-11.605 0-20.48 8.875-20.48 20.48v421.205c0 11.605 8.875 20.48 20.48 20.48s20.48-8.875 20.48-20.48v-421.205c0-11.605-8.875-20.48-20.48-20.48zM653.995 110.933c-11.605 0-20.48 8.875-20.48 20.48v421.205c0 11.605 8.875 20.48 20.48 20.48s20.48-8.875 20.48-20.48v-421.205c0-11.605-8.875-20.48-20.48-20.48zM512 110.933c-11.605 0-20.48 8.875-20.48 20.48v421.205c0 11.605 8.875 20.48 20.48 20.48s20.48-8.875 20.48-20.48v-421.205c0-11.605-8.875-20.48-20.48-20.48zM865.621 659.115h-219.136l-77.141 69.632h-119.467l-73.045-69.632h-236.885c-11.605 0-20.48 8.875-20.48 20.48s8.875 20.48 20.48 20.48h220.501l73.045 69.632h151.552l77.141-69.632h204.117c11.605 0 20.48-8.875 20.48-20.48s-9.557-20.48-21.163-20.48z" />
<glyph unicode="&#xe60b;" glyph-name="xingxing1" horiz-adv-x="1092" d="M1080.271 442.266c-77.162-88.185-214.585-234.426-214.585-234.426s22.046-160.204 35.274-269.701c5.879-55.852-37.479-80.102-85.981-58.055-92.595 43.358-233.691 110.967-265.291 126.4-32.335-14.698-174.166-81.572-267.496-124.929-49.237-21.311-92.595 2.205-87.451 58.055 12.493 109.497 35.274 268.966 35.274 268.966s-138.892 145.506-216.788 233.691c-27.925 32.335-9.552 77.897 44.828 85.981 111.702 19.842 284.398 51.442 284.398 51.442s94.799 163.144 154.325 263.087c33.070 60.995 55.851 53.646 59.526 52.176 10.288-2.94 26.456-15.432 47.033-52.176 58.79-99.944 152.12-263.088 152.12-263.088s170.492-31.601 280.724-51.442c53.646-8.084 71.283-54.381 44.093-85.981z" />
<glyph unicode="&#xe611;" glyph-name="ok" d="M511.889 764.155c-201.84 0-365.489-163.627-365.489-365.489s163.649-365.49 365.489-365.49 365.489 163.627 365.489 365.49c0 201.862-163.648 365.489-365.489 365.489v0zM690.072 500.099l-227.415-228.799c-0.815-1.226-1.763-2.398-2.844-3.479-8.934-8.912-23.401-8.912-32.313 0l-113.067 113.066c-8.912 8.912-8.912 23.378 0 32.302 8.912 8.934 23.378 8.934 32.312 0l96.57-96.57 214.444 215.783c8.923 8.923 23.379 8.923 32.313 0 8.912-8.912 8.912-23.378 0-32.302v0z" />
<glyph unicode="&#xe61a;" glyph-name="iconfontshanchu3" horiz-adv-x="1027" d="M897.092 722.949v-743.409c0-21.186-8.832-40.524-22.933-54.603l-0.068-0.067c-14.101-14.079-33.613-22.896-54.764-22.896h-616.018c-21.153 0-40.594 8.818-54.695 22.896l-0.068 0.067-0.070-0.067c-14.033 14.078-22.863 33.485-22.863 54.67v681.763c0 14.216 11.568 25.834 25.875 25.834s25.945-11.619 25.945-25.834v-681.763c0-6.9 2.944-13.394 7.736-18.108l-0.070-0.070c4.725-4.713 11.227-7.653 18.209-7.653h616.018c6.982 0 13.485 2.939 18.209 7.586 4.725 4.714 7.736 11.207 7.736 18.246v743.408h-819.329c-14.306 0-25.944 11.549-25.944 25.831s11.637 25.833 25.944 25.833h221.517v42.098c0 21.255 8.762 40.662 22.865 54.741 14.032 14.011 33.471 22.826 54.832 22.826h372.32c21.356 0 40.731-8.747 54.832-22.757l0.068-0.070v0.070c14.102-14.079 22.865-33.488 22.865-54.81v-42.097h221.517c14.306 0 25.875-11.551 25.875-25.833s-11.569-25.831-25.875-25.831h-99.667zM675.846 602.465c0 14.283 11.572 25.902 25.878 25.902 14.305 0 25.874-11.619 25.874-25.902v-537.84c0-14.283-11.571-25.9-25.874-25.9-14.307 0-25.878 11.617-25.878 25.9v537.84zM485.406 602.465c0 14.283 11.636 25.902 25.944 25.902s25.875-11.619 25.875-25.902v-537.84c0-14.283-11.568-25.9-25.875-25.9s-25.944 11.617-25.944 25.9v537.84zM295.038 602.465c0 14.283 11.635 25.902 25.874 25.902 14.305 0 25.943-11.619 25.943-25.902v-537.84c0-14.283-11.638-25.9-25.943-25.9-14.239 0-25.874 11.617-25.874 25.9v537.84zM299.282 774.614h424.139v42.097c0 7.039-2.942 13.531-7.667 18.248h0.069c-4.722 4.647-11.158 7.586-18.346 7.586h-372.32c-7.053 0-13.487-2.939-18.209-7.653-4.725-4.715-7.667-11.208-7.667-18.179v-42.098z" />
<glyph unicode="&#xe61c;" glyph-name="bianji1" d="M886.211-25.334c0-23.076-17.357-40.484-40.366-40.484h-698.573c-23.45 0-42.516 18.166-42.516 40.484v769.623c0 22.984 19.471 42.394 42.516 42.394h555.418v35.523h-555.418c-42.301 0-78.039-35.676-78.039-77.911v-769.623c0-41.907 35.011-76.006 78.039-76.006h698.573c42.552 0 75.884 33.388 75.884 76.006v575.206h-35.523v-575.212h0.005zM994.57 852.106l-414.408-414.403-25.114 25.119 414.413 414.403 25.108-25.119zM205.394 425.549h248.643c9.81 0 17.761 7.956 17.761 17.766 0 9.805-7.951 17.761-17.761 17.761h-248.643c-9.81 0-17.761-7.956-17.761-17.761-0.005-9.81 7.951-17.766 17.761-17.766v0zM205.394 626.842h248.643c9.81 0 17.761 7.951 17.761 17.766 0 9.805-7.951 17.756-17.761 17.756h-248.643c-9.81 0-17.761-7.951-17.761-17.756 0-9.815 7.951-17.766 17.761-17.766v0zM205.394 200.591h592.010c9.805 0 17.761 7.951 17.761 17.761s-7.951 17.761-17.761 17.761h-592.010c-9.81 0-17.761-7.951-17.761-17.761s7.951-17.761 17.761-17.761v0z" />
<glyph unicode="&#xe620;" glyph-name="password" d="M521.939 244.493c-41.249 0-74.68-33.429-74.68-74.68 0-29.721 17.512-55.18 42.675-67.188v-82.139c0-17.659 14.346-32.006 32.005-32.006s32.006 14.347 32.006 32.006v82.141c25.162 12.010 42.675 37.466 42.675 67.187 0 41.249-33.431 74.679-74.681 74.679zM831.296 393.822h-640.017c-35.352 0-64.012-28.627-64.012-63.98v-426.677c0-35.352 28.66-64.012 64.012-64.012h640.017c35.318 0 63.978 28.66 63.978 64.012v426.677c0.001 35.352-28.659 63.98-63.978 63.98zM831.296-54.161c0-35.352-7.322-42.675-42.675-42.675h-554.702c-35.351 0-42.64 7.322-42.64 42.675v341.328c0 35.352 7.289 42.675 42.64 42.675h554.702c35.352 0 42.675-7.322 42.675-42.675v-341.328zM208.867 426.025c17.769 0 32.219 14.162 32.706 31.813l0.068-0.004c28.924 122.258 138.526 213.339 269.631 213.339 102.48 0 191.683-55.771 239.629-138.476 4.989-11.293 16.28-19.178 29.419-19.178 17.758 0 32.154 14.396 32.154 32.154 0 6.929-2.199 13.34-5.926 18.589-58.985 102.048-168.918 170.923-295.276 170.923-165.111 0-302.614-113.306-334.272-268.98-0.149-0.642-0.28-1.289-0.392-1.945-0.153-0.779-0.321-1.551-0.47-2.332l0.155-0.009c-0.1-1.041-0.155-2.095-0.155-3.162-0.001-18.078 14.653-32.731 32.729-32.731z" />
<glyph unicode="&#xe622;" glyph-name="xiaoxi" d="M512 100c-26.472 0.086-52.339 2.41-77.498 6.794l2.73-0.394-175.232-106.4v177.024c-91.36 64.144-150 162.496-150 272.976 0 193.296 179.088 350 400 350s400-156.704 400-350-179.088-350-400-350zM512 750c-193.296 0-350-134.32-350-300 0-101.664 59.2-191.344 149.376-245.6l-1.6-115.968 117.68 70.736c25.378-5.747 54.548-9.082 84.483-9.168h0.061c193.296 0 350 134.304 350 300s-156.704 300-350 300zM336 496c26.51 0 48-21.49 48-48s-21.49-48-48-48c-26.51 0-48 21.49-48 48v0c0 26.51 21.49 48 48 48v0zM512 496c26.51 0 48-21.49 48-48s-21.49-48-48-48c-26.51 0-48 21.49-48 48v0c0 26.51 21.49 48 48 48v0zM688 496c26.51 0 48-21.49 48-48s-21.49-48-48-48c-26.51 0-48 21.49-48 48v0c0 26.51 21.49 48 48 48v0z" />
<glyph unicode="&#xe623;" glyph-name="youxiang" d="M830.456 578.574c9.169 6.851 22.184 4.583 28.293-3.844 6.873-9.169 4.585-22.182-4.583-28.291l-324.225-235.506c-7.639-5.347-16.808-4.585-23.71 0l-324.964 235.504c-9.169 6.111-10.697 19.122-4.583 28.291 6.902 8.428 19.124 10.695 28.291 3.844l312.744-226.335 312.738 226.337zM171.336 719.245h692.761c22.944 0 43.596-9.169 58.116-24.447 14.541-14.541 23.706-35.195 23.706-57.375v-516.135c0-22.153-9.167-42.805-23.706-58.11v0 0 0c-15.282-14.518-35.172-23.683-58.116-23.683h-692.761c-22.184 0-42.809 9.167-57.348 23.683-15.28 15.305-24.472 35.191-24.472 58.11v516.137c0 22.18 9.191 42.834 24.472 57.375v0c14.539 15.278 35.166 24.445 57.348 24.445v0zM864.096 678.73h-692.761c-11.461 0-21.418-4.583-29.057-12.222v0c-7.639-7.639-12.225-17.598-12.225-29.082v-516.135c0-11.459 4.585-22.153 12.225-29.055 7.639-7.641 17.596-12.222 29.057-12.222h692.761c11.485 0 22.182 4.579 29.823 12.222v0c6.873 6.9 11.483 17.596 11.483 29.055v516.135c0 11.483-4.61 21.443-11.483 29.082-7.641 7.639-18.338 12.222-29.823 12.222v0zM506.231 310.934c-2.265 1.528-3.793 3.056-4.583 4.583" />
<glyph unicode="&#xe624;" glyph-name="shishangjiantou-" d="M512 573.44l284.587-378.88h-569.174l284.587 378.88z" />
<glyph unicode="&#xe625;" glyph-name="shixiangxiajiantou-" d="M512 194.56l-284.587 378.88h569.174l-284.587-378.88z" />
<glyph unicode="&#xe626;" glyph-name="jia" d="M980.701 427.545h-423.299v423.299c-0.004 23.939-19.411 43.343-43.35 43.343s-43.346-19.405-43.35-43.343v0-423.299h-423.306c-23.942 0-43.35-19.408-43.35-43.35s19.408-43.35 43.35-43.35v0h423.306v-423.313c0.004-23.939 19.411-43.343 43.35-43.343s43.346 19.405 43.35 43.343v0 423.313h423.299c23.942 0 43.35 19.408 43.35 43.35s-19.408 43.35-43.35 43.35v0z" />
<glyph unicode="&#xe627;" glyph-name="shanchu" d="M78.933 770.133v-53.333h83.2v-691.2c0-49.067 38.4-87.467 87.467-87.467h529.067c49.067 0 87.467 38.4 87.467 87.467v691.2h76.8v53.333h-864zM812.8 25.6c0-19.2-14.933-34.133-34.133-34.133h-529.067c-19.2 0-34.133 14.933-34.133 34.133v691.2h597.333v-691.2zM398.933 827.733h226.133v-53.333h-226.133zM486.4 571.733h53.333v-407.467h-53.333zM642.133 533.333h53.333v-332.8h-53.333zM326.4 533.333h53.333v-332.8h-53.333z" />
<glyph unicode="&#xe62a;" glyph-name="youjiantou" d="M282.726-108.715c8.738 0 17.476 3.345 24.132 10.001l458.615 458.547c13.346 13.346 13.346 34.918 0 48.265l-458.615 458.615c-13.346 13.346-34.918 13.346-48.265 0s-13.346-34.918 0-48.265l434.483-434.449-434.483-434.449c-13.346-13.346-13.346-34.918 0-48.265 6.656-6.656 15.394-10.001 24.132-10.001z" />
<glyph unicode="&#xe638;" glyph-name="dingdan" d="M745.2 709.5c-12 42.8-56.5 74.6-109.3 74.6h-6.9c-2.9 61.4-53.8 110.6-116 110.6s-113.1-49.1-115.9-110.6h-6.9c-52.9 0-97.3-31.8-109.3-74.6-76.9-0.1-139.5-62.7-139.5-139.6v-556.9c0-77 62.6-139.6 139.6-139.6h464c77 0 139.6 62.6 139.6 139.6v556.8c0.1 77-62.5 139.6-139.4 139.7zM390.2 737.6h31.8c6.9 0 13.5 3.1 17.9 8.4s6.2 12.4 4.9 19.2c-0.9 4.7-1.4 9.1-1.4 13.4 0 38.4 31.2 69.6 69.6 69.6s69.6-31.2 69.6-69.6c0-4.3-0.4-8.6-1.4-13.4-1.3-6.8 0.5-13.8 4.9-19.2 4.4-5.3 11-8.4 17.9-8.4h31.8c35.8 0 66.1-23.5 66.1-51.4 0-27.8-30.3-51.4-66.1-51.4h-245.6c-35.8 0-66.1 23.5-66.1 51.4-0.1 27.9 30.2 51.4 66.1 51.4zM837.4 13c0-50.9-41.4-92.4-92.4-92.4h-464c-50.9 0-92.4 41.4-92.4 92.4v556.8c0 50.9 41.4 92.4 92.4 92.4v0.4c12.2-42.5 56.5-74.1 109.2-74.1h245.7c52.7 0 97 31.6 109.2 74.1v-0.4c50.9 0 92.4-41.4 92.4-92.4v-556.8zM292.6 430.6h341.1v-46.4h-341.1zM292.6 152.2h365.4v-46.4h-365.4zM292.6 291.4h487.3v-46.4h-487.3z" />
<glyph unicode="&#xe639;" glyph-name="shouye" d="M1016.8 454.3l-405.4 405.3c-47.1 47.1-123.6 47.1-170.7 0l-432-432c-9.2-9.2-9.2-24.2 0-33.4 4.6-4.6 10.7-6.9 16.7-6.9s12.1 2.3 16.7 6.9l77.9 77.9v-455.8c0-79.1 64.4-143.5 143.5-143.5h516.6c79.1 0 143.5 64.4 143.5 143.5v464.3l59.6-59.6c9.2-9.2 24.2-9.2 33.4 0 9.4 9.1 9.4 24.1 0.2 33.3zM401.7-67.6v349c0 16 13 29.1 29.1 29.1h182.3c16 0 29.1-13 29.1-29.1v-349.1h-240.5zM876.4 16.4c0-53-43.1-96.2-96.2-96.2h-90.8v361.2c0 42.1-34.3 76.4-76.4 76.4h-182.2c-42.1 0-76.4-34.3-76.4-76.4v-361.2h-90.8c-53 0-96.2 43.1-96.2 96.2v503.1l306.8 306.7c28.6 28.6 75.2 28.6 103.9 0l298.4-298.4v-511.4zM675.5 428.7h70.9c13.1 0 23.6 10.6 23.6 23.6 0 13.1-10.6 23.6-23.6 23.6h-70.9c-13.1 0-23.6-10.6-23.6-23.6s10.6-23.6 23.6-23.6z" />
<glyph unicode="&#xe63a;" glyph-name="wode" d="M811.3 297.9h-597.3c-117.2 0-212.6-95.4-212.6-212.6s95.4-212.6 212.6-212.6h597.3c117.2 0 212.6 95.4 212.6 212.6s-95.3 212.6-212.6 212.6zM811.3-80.8h-597.3c-91.6 0-166.1 74.5-166.1 166.1s74.5 166.1 166.1 166.1h597.3c91.6 0 166.1-74.5 166.1-166.1s-74.5-166.1-166.1-166.1zM524.3 414.1c59 0 114.4 23 156.1 64.7s64.7 97.1 64.7 156.1-23 114.4-64.7 156.1c-41.7 41.7-97.1 64.7-156.1 64.7s-114.4-23-156.1-64.7c-41.7-41.7-64.7-97.1-64.7-156.1s23-114.4 64.7-156.1c41.7-41.7 97.1-64.7 156.1-64.7zM524.3 809.2c96.1 0 174.3-78.2 174.3-174.3s-78.2-174.3-174.3-174.3c-96.1 0-174.3 78.2-174.3 174.3s78.2 174.3 174.3 174.3z" />
<glyph unicode="&#xe63b;" glyph-name="wodehover" d="M954.4 43c0 73.6-59.6 133.2-133.2 133.2h-523.5c-73.6 0-133.2-59.6-133.2-133.2v-2.8c0-51.4 29.1-96 71.7-118.2h575.4c53.7 0 101.6 25.7 131.9 65.3 7 16.2 10.9 34.1 10.9 52.8v2.9zM811.6 300.6h-597.2c-117.2 0-212.5-95.4-212.5-212.6s95.3-212.5 212.5-212.5h597.2c117.2 0 212.5 95.3 212.5 212.5s-95.3 212.6-212.5 212.6zM943.5-12.7c-30.4-39.7-78.2-65.3-131.9-65.3h-597.2c-91.6 0-166.1 74.5-166.1 166 0 91.6 74.5 166.1 166.1 166.1h597.2c91.6 0 166.1-74.5 166.1-166.1 0-37.8-12.8-72.7-34.2-100.7zM524.6 416.8c121.7 0 220.7 99 220.7 220.7s-99 220.7-220.7 220.7-220.7-99-220.7-220.7c0-121.7 99-220.7 220.7-220.7zM524.6 811.7c96.1 0 174.3-78.2 174.3-174.3s-78.2-174.3-174.3-174.3c-96.1 0-174.3 78.2-174.3 174.3 0.1 96.2 78.2 174.3 174.3 174.3z" />
<glyph unicode="&#xe63c;" glyph-name="dingdanhover" d="M633.2 384.2h-271.6v-92.9h417.9v-46.4h-417.9v-92.9h296v-46.4h-296v-185.3h383.1c51 0 92.5 41.5 92.5 92.5v417.8h-204v-46.4zM744.8 709.7c-12 42.8-56.5 74.6-109.4 74.6h-6.9c-2.9 61.5-53.8 110.7-116 110.7s-113.1-49.2-116-110.7h-6.9c-52.9 0-97.4-31.9-109.4-74.6-77-0.1-139.6-62.7-139.6-139.7v-557.2c0-77 62.7-139.7 139.7-139.7h464.4c77 0 139.7 62.7 139.7 139.7v557.1c0 77-62.6 139.7-139.6 139.8zM389.6 737.9h31.8c6.9 0 13.5 3.1 17.9 8.5s6.2 12.4 4.9 19.2c-0.9 4.7-1.4 9.1-1.4 13.4 0 38.4 31.2 69.7 69.7 69.7 38.4 0 69.7-31.2 69.7-69.7 0-4.3-0.4-8.7-1.4-13.4-1.3-6.8 0.5-13.9 4.9-19.2 4.4-5.4 11-8.5 17.9-8.5h31.8c35.9 0 66.2-23.5 66.2-51.4s-30.3-51.4-66.2-51.4h-245.8c-35.9 0-66.2 23.5-66.2 51.4s30.3 51.4 66.2 51.4zM187.9 12.7v557.2c0 51 41.5 92.5 92.5 92.5v0.4c12.2-42.5 56.6-74.2 109.3-74.2h245.8c52.7 0 97.1 31.6 109.3 74.2v-0.4c51 0 92.5-41.5 92.5-92.5v-557.2c0-51-41.5-92.5-92.5-92.5h-464.5c-51 0-92.4 41.5-92.4 92.5zM633.2 430.6h-341.3v-46.4h341.3zM657.6 152h-365.7v-46.4h365.7zM779.5 291.3h-487.6v-46.4h487.6z" />
<glyph unicode="&#xe63d;" glyph-name="shouyehover" d="M1016.8 454.3l-405.4 405.3c-47.1 47.1-123.6 47.1-170.7 0l-432-432c-9.2-9.2-9.2-24.2 0-33.4 4.6-4.6 10.7-6.9 16.7-6.9s12.1 2.3 16.7 6.9l77.9 77.9v-455.8c0-79.1 64.4-143.5 143.5-143.5h516.6c79.1 0 143.5 64.4 143.5 143.5v464.3l59.6-59.6c9.2-9.2 24.2-9.2 33.4 0 9.4 9.1 9.4 24.1 0.2 33.3zM401.7-67.6v349c0 16 13 29.1 29.1 29.1h182.3c16 0 29.1-13 29.1-29.1v-349.1h-240.5zM876.4 16.4c0-53-43.1-96.2-96.2-96.2h-90.8v361.2c0 42.1-34.3 76.4-76.4 76.4h-182.2c-42.1 0-76.4-34.3-76.4-76.4v-361.2h-90.8c-53 0-96.2 43.1-96.2 96.2v503.1l306.8 306.7c28.6 28.6 75.2 28.6 103.9 0l298.4-298.4v-511.4zM613.1 310.5h-182.3c-16 0-29.1-13-29.1-29.1v-349.1h240.5v349.1c-0.1 16.1-13.1 29.1-29.1 29.1zM675.5 428.7h70.9c13.1 0 23.6 10.6 23.6 23.6 0 13.1-10.6 23.6-23.6 23.6h-70.9c-13.1 0-23.6-10.6-23.6-23.6s10.6-23.6 23.6-23.6z" />
<glyph unicode="&#xe63e;" glyph-name="gouwuche" d="M947.7 691.3h-816.8v204.7h-126.9v-46.3h80.6v-486.2c1-81.4 33.1-157.7 90.7-215.3 58.5-58.5 136.3-90.8 219.1-90.8h468.7c87.5 0 158.7 71.2 158.7 158.7v400.9c0.2 41-33.1 74.3-74.1 74.3zM975.7 216.2c0-62-50.4-112.4-112.4-112.4h-468.8c-145.3 0-263.6 118.2-263.6 263.6v277.6h816.8c15.4 0 28-12.6 28-28v-400.8zM355.9 33c-44 0-79.7-35.8-79.7-79.7s35.8-79.7 79.7-79.7 79.7 35.8 79.7 79.7-35.7 79.7-79.7 79.7zM355.9-80.2c-18.4 0-33.4 15-33.4 33.4s15 33.4 33.4 33.4 33.4-15 33.4-33.4-14.9-33.4-33.4-33.4zM808.6 33c-44 0-79.7-35.8-79.7-79.7s35.8-79.7 79.7-79.7 79.7 35.8 79.7 79.7-35.7 79.7-79.7 79.7zM808.6-80.2c-18.4 0-33.4 15-33.4 33.4s15 33.4 33.4 33.4 33.4-15 33.4-33.4-14.9-33.4-33.4-33.4zM872.1 502.5c-12.8 0-23.1-10.4-23.1-23.1v-177c0-12.8 10.4-23.1 23.1-23.1s23.1 10.4 23.1 23.1v177c0 12.7-10.3 23.1-23.1 23.1zM872.1 241.6c-12.8 0-23.1-10.4-23.1-23.1v-3.8c0-12.8 10.4-23.1 23.1-23.1s23.1 10.4 23.1 23.1v3.8c0 12.7-10.3 23.1-23.1 23.1z" />
<glyph unicode="&#xe63f;" glyph-name="gouwuchehover" d="M301 293.6c0-82.5 46.1-154.2 114-190.7h446.7c61.9 0 112.3 50.4 112.3 112.3v292.3h-673v-213.9zM847.4 478.1c0 12.8 10.4 23.1 23.1 23.1s23.1-10.4 23.1-23.1v-176.8c0-12.8-10.4-23.1-23.1-23.1s-23.1 10.4-23.1 23.1v176.8zM847.4 217.4c0 12.8 10.4 23.1 23.1 23.1s23.1-10.4 23.1-23.1v-3.8c0-12.8-10.4-23.1-23.1-23.1s-23.1 10.4-23.1 23.1v3.8zM946 689.8h-815.8v204.4h-126.8v-46.2h80.6v-485.6c1-81.3 33-157.5 90.6-215.1 58.5-58.5 136.2-90.7 218.9-90.7h468.2c87.4 0 158.6 71.1 158.6 158.6v400.4c-0.1 40.9-33.3 74.2-74.3 74.2zM130.2 366.2v277.3h815.8c15.4 0 28-12.5 28-28v-400.4c0-61.9-50.4-112.3-112.3-112.3h-468.3c-145.1 0.1-263.2 118.2-263.2 263.4zM354.9 32.2c-43.9 0-79.6-35.7-79.6-79.6s35.7-79.6 79.6-79.6 79.6 35.7 79.6 79.6c0 43.9-35.7 79.6-79.6 79.6zM354.9-80.8c-18.4 0-33.4 15-33.4 33.4s15 33.4 33.4 33.4 33.4-15 33.4-33.4-15-33.4-33.4-33.4zM807.1 32.2c-43.9 0-79.6-35.7-79.6-79.6s35.7-79.6 79.6-79.6c43.9 0 79.6 35.7 79.6 79.6s-35.7 79.6-79.6 79.6zM807.1-80.8c-18.4 0-33.4 15-33.4 33.4s15 33.4 33.4 33.4 33.4-15 33.4-33.4-15-33.4-33.4-33.4zM870.5 278.2c12.8 0 23.1 10.4 23.1 23.1v176.8c0 12.8-10.4 23.1-23.1 23.1s-23.1-10.4-23.1-23.1v-176.8c0-12.8 10.3-23.1 23.1-23.1zM870.5 190.6c12.8 0 23.1 10.4 23.1 23.1v3.8c0 12.8-10.4 23.1-23.1 23.1s-23.1-10.4-23.1-23.1v-3.8c0-12.8 10.3-23.1 23.1-23.1z" />
<glyph unicode="&#xe64a;" glyph-name="yonghu" d="M621.8 294.8c86.8 49.5 146.1 141.9 146.1 249 0 158.9-128.8 287.7-287.7 287.7s-287.7-128.8-287.7-287.7c0-107.1 59.2-199.5 146.1-249-150-54.5-259.7-192.7-272.3-358.3h63.9c16.2 178.9 166.9 319.6 350 319.6s333.8-140.7 350-319.6h63.9c-12.6 165.6-122.3 303.8-272.3 358.3zM256.4 543.8c0 123.4 100.4 223.7 223.8 223.7s223.8-100.3 223.8-223.7-100.4-223.7-223.8-223.7-223.8 100.3-223.8 223.7z" />
<glyph unicode="&#xe64d;" glyph-name="youxiang1" d="M876.557 685.435h-732.178c-44.805 0-81.257-36.45-81.257-81.257v-514.472c0-44.805 36.45-81.257 81.257-81.257h732.178c44.805 0 81.257 36.45 81.257 81.257v514.472c0 44.806-36.45 81.257-81.257 81.257zM876.557 629.516c4.118 0 8.005-0.993 11.445-2.742l-377.534-272.261-377.538 272.255c3.325 1.732 7.261 2.748 11.434 2.748 0.006 0 0.011 0 0.017 0h732.176zM876.557 64.369h-732.178c-13.966 0-25.338 11.372-25.338 25.338v478.137l391.427-282.273 391.427 282.282v-478.146c0-13.966-11.358-25.338-25.338-25.338z" />
<glyph unicode="&#xe662;" glyph-name="shanchu2" d="M189.125 689.182h645.75c-10.819 0-19.837 9.539-19.157 20.442l-48.873-783.046c0.575 9.218 7.829 16.043 17.19 16.043h-544.070c9.268 0 16.621-6.933 17.19-16.043l-48.873 783.046c0.68-10.897-8.299-20.442-19.157-20.442zM186.671-77.821c1.751-28.059 25.212-50.179 53.294-50.179h544.070c27.955 0 51.547 22.197 53.294 50.179l48.873 783.046c1.863 29.852-21.513 54.578-51.327 54.578h-645.75c-29.855 0-53.186-24.8-51.327-54.578l48.873-783.046zM971.034 689.182c19.501 0 35.31 15.809 35.31 35.31s-15.809 35.31-35.31 35.31h-918.069c-19.501 0-35.31-15.809-35.31-35.31s15.809-35.31 35.31-35.31h918.069zM358.849 689.182h306.302c28.865 0 52.172 23.571 52.172 52.284v102.249c0 28.819-23.493 52.284-52.172 52.284h-306.302c-28.865 0-52.172-23.571-52.172-52.284v-102.249c0-28.819 23.493-52.284 52.172-52.284zM377.298 843.716c0-10.113-8.132-18.336-18.448-18.336h306.302c-10.305 0-18.448 8.134-18.448 18.336v-102.249c0 10.113 8.132 18.336 18.448 18.336h-306.302c10.305 0 18.448-8.134 18.448-18.336v102.249zM595.699 60.532c0-19.501 15.809-35.31 35.31-35.31s35.31 15.809 35.31 35.31v510.739c0 19.501-15.809 35.31-35.31 35.31s-35.31-15.809-35.31-35.31v-510.739zM428.301 571.271c0 19.501-15.809 35.31-35.31 35.31s-35.31-15.809-35.31-35.31v-510.739c0-19.501 15.809-35.31 35.31-35.31s35.31 15.809 35.31 35.31v510.739z" />
<glyph unicode="&#xe67f;" glyph-name="bianji" d="M802.714-10.739h-590.346c-54.338 0-98.39 44.082-98.39 98.452v590.737c0 54.378 44.698 103.115 99.039 103.115h396.155v-49.52h-396.155c-27.169 0-49.843-26.41-49.843-53.597v-590.736c0-27.185 22.026-49.228 49.194-49.228h590.346c27.168 0 54.050 22.623 54.050 49.81v396.153h49.52v-396.15c-0.002-54.372-49.23-99.036-103.57-99.036zM508.68 227.827c-7.192-7.199-16.2-10.798-25.486-12.607l-215.397-106.545c-24.242-11.257-43.659 10.484-34.725 34.748l106.475 215.542c1.805 9.292 5.404 18.303 12.597 25.501l382.652 382.904c19.211 19.227 50.36 19.227 69.57 0l86.965-87.023c19.214-19.222 19.214-50.395 0-69.618l-382.65-382.902zM280.182 173.193c-5.628-11.35 5.242-23.006 17.363-17.374l133.010 80.566-69.861 69.907-80.512-133.1zM404.32 332.253l52.182-52.216c9.603-9.612-15.222 15.233 17.39-17.402l278.294 278.475-87.586 86.403-277.67-277.855c9.24-9.244 7.785-7.794 17.392-17.404zM839.15 662.941l-52.179 52.217c-9.604 9.612-25.18 9.612-34.785 0l-50.935-50.965 85.717-88.27 52.182 52.216c9.607 9.61 9.607 25.19 0 34.802z" />
<glyph unicode="&#xe6cc;" glyph-name="xingxing" d="M972.918 504.348c-7.325 23.010-28.67 40.475-63.433 51.907-0.455 0.156-0.911 0.29-1.376 0.403l-188.768 48.162c-40.93 58.695-81.912 117.368-122.893 176.053-0.166 0.227-0.538 0.765-0.714 0.994-19.72 25.928-44.293 40.216-69.175 40.216-17.983 0-44.354-7.294-68.11-42.337l-105.128-160.564c-47.076-13.42-94.151-26.89-141.258-40.361l-68.844-19.689c-32.063-9.788-52.322-25.638-60.205-47.107-8.278-22.555-2.462-48.856 17.806-80.411 0.486-0.765 1.024-1.5 1.604-2.193 41.189-49 82.357-98.052 123.545-147.166-2.111-70.759-4.263-141.6-6.446-212.43-3.135-33.915 2.079-57.815 15.933-73.065 10.501-11.557 25.1-17.413 43.392-17.413 14.019 0 30.646 3.445 53.077 11.112l181.774 69.568c68.586-24.055 137.254-48.038 206.75-72.279 13.564-4.108 26.124-6.187 37.339-6.187 25.577 0 68.999 11.060 72.465 85.171 0.031 0.755 0.031 1.51-0.020 2.266-3.797 63.153-7.646 126.174-11.485 189.224l-0.052 0.828 133.883 169.274c20.662 27.945 27.5 53.532 20.341 76.026zM918.91 454.055l-138.475-175.060c-3.239-4.097-4.853-9.229-4.531-14.444l0.538-8.918c3.818-62.647 7.646-125.273 11.422-188.023-2.338-43.672-20.362-43.672-30.077-43.672-7.056 0-15.489 1.469-24.221 4.087-71.099 24.832-142.169 49.652-213.175 74.566-4.739 1.645-9.891 1.573-14.578-0.207l-188.292-72.083c-16.927-5.773-29.58-8.577-38.675-8.577-8.815 0-11.153 2.577-12.033 3.539-2.442 2.69-7.822 12.084-5.039 41.22 0.041 0.455 0.073 0.911 0.083 1.366 2.276 73.769 4.511 147.528 6.705 221.204 0.156 5.194-1.604 10.264-4.946 14.246-42.617 50.842-85.233 101.601-127.849 152.318-11.722 18.55-16.212 32.984-12.974 41.799 3.818 10.398 19.937 17.258 32.436 21.075l68.482 19.585c49.642 14.195 99.221 28.38 148.821 42.513 4.893 1.397 9.126 4.511 11.908 8.774l109.268 166.886c7.253 10.698 18.84 23.455 32.849 23.455 11.329 0 23.921-8.349 35.146-23.103 42.482-60.826 84.964-121.641 127.384-182.478 2.907-4.17 7.211-7.16 12.136-8.412l195.68-49.931c20.134-6.715 32.778-15.333 35.633-24.283 2.721-8.566-2.266-22.048-13.626-37.443z" />
<glyph unicode="&#xe6e4;" glyph-name="fangdajing" d="M889.6 57.6l-192 192c44.8 51.2 70.4 121.6 70.4 198.4 0 179.2-140.8 320-320 320s-320-140.8-320-320 140.8-320 320-320c76.8 0 147.2 25.6 198.4 70.4l192-192c12.8-12.8 32-12.8 44.8 0s12.8 38.4 6.4 51.2zM192 448c0 140.8 115.2 256 256 256s256-115.2 256-256c0-140.8-115.2-256-256-256s-256 115.2-256 256z" />
<glyph unicode="&#xe922;" glyph-name="jiaochacross78" d="M1024 384c0 282.764-229.236 512-512 512s-512-229.236-512-512c0-282.764 229.236-512 512-512s512 229.236 512 512zM281.6 186.508l197.492 197.492-197.492 197.492 32.908 32.908 197.492-197.492 197.492 197.492 32.908-32.908-197.492-197.492 197.492-197.492-32.908-32.908-197.492 197.492-197.492-197.492-32.908 32.908z" />
</font>
</defs>
</svg>
